<svg width="32" height="32" viewBox="0 0 32 32" fill="none" xmlns="http://www.w3.org/2000/svg">
<path fill-rule="evenodd" clip-rule="evenodd" d="M6.39992 25.3333H25.5999C26.1893 25.3333 26.6666 25.9307 26.6666 26.6667C26.6666 27.4027 26.1893 28 25.5999 28H6.39992C5.81059 28 5.33325 27.4027 5.33325 26.6667C5.33325 25.9307 5.81059 25.3333 6.39992 25.3333ZM14.6666 20C14.6666 20.7072 14.3856 21.3855 13.8855 21.8856C13.3854 22.3857 12.7072 22.6667 11.9999 22.6667C11.2927 22.6667 10.6144 22.3857 10.1143 21.8856C9.6142 21.3855 9.33325 20.7072 9.33325 20V6.66667C9.33325 5.95942 9.6142 5.28115 10.1143 4.78105C10.6144 4.28095 11.2927 4 11.9999 4C12.7072 4 13.3854 4.28095 13.8855 4.78105C14.3856 5.28115 14.6666 5.95942 14.6666 6.66667V20ZM22.6666 20C22.6666 20.7072 22.3856 21.3855 21.8855 21.8856C21.3854 22.3857 20.7072 22.6667 19.9999 22.6667C19.2927 22.6667 18.6144 22.3857 18.1143 21.8856C17.6142 21.3855 17.3333 20.7072 17.3333 20V12C17.3333 11.2928 17.6142 10.6145 18.1143 10.1144C18.6144 9.61428 19.2927 9.33333 19.9999 9.33333C20.7072 9.33333 21.3854 9.61428 21.8855 10.1144C22.3856 10.6145 22.6666 11.2928 22.6666 12V20Z" fill="#8BC3F3"/>
</svg>
