<svg width="32" height="32" viewBox="0 0 32 32" fill="none" xmlns="http://www.w3.org/2000/svg">
<path d="M4.66667 6.89543H26C26.7072 6.89543 27.3855 7.17638 27.8856 7.67648C28.3857 8.17658 28.6667 8.85486 28.6667 9.5621V25.5621C28.6667 26.2693 28.3857 26.9476 27.8856 27.4477C27.3855 27.9478 26.7072 28.2288 26 28.2288H4.66667C3.95942 28.2288 3.28115 27.9478 2.78105 27.4477C2.28095 26.9476 2 26.2693 2 25.5621V9.5621C2 8.85486 2.28095 8.17658 2.78105 7.67648C3.28115 7.17638 3.95942 6.89543 4.66667 6.89543ZM4.66667 9.55999V25.5621H10V9.55999H4.66667ZM12.6667 9.5621V25.5621H26V9.5621H12.6667Z" fill="#8BC3F3"/>
</svg>
