<svg width="32" height="32" viewBox="0 0 32 32" fill="none" xmlns="http://www.w3.org/2000/svg">
<path d="M7.22093 3H25.7791C26.4534 3 27 3.61918 27 4.38298C27 5.14678 26.4534 5.76596 25.7791 5.76596H7.22093C6.54663 5.76596 6 5.14678 6 4.38298C6 3.61918 6.54663 3 7.22093 3Z" fill="#8BC3F3"/>
<path d="M15.8512 6.69592L13.0648 9.50143C12.7292 9.83937 12.9402 10.4681 13.3893 10.4681H14.3024V21.5319H13.3893C12.9402 21.5319 12.7292 22.1606 13.0648 22.4986L15.8512 25.3041C16.2213 25.6767 16.779 25.6767 17.149 25.3041L19.9354 22.4986C20.271 22.1606 20.06 21.5319 19.6109 21.5319H18.6978V10.4681H19.6109C20.06 10.4681 20.271 9.83937 19.9354 9.50143L17.149 6.69592C16.779 6.3233 16.2213 6.3233 15.8512 6.69592Z" fill="#8BC3F3"/>
<path d="M7.22093 26.234H25.7791C26.4534 26.234 27 26.8532 27 27.617C27 28.3808 26.4534 29 25.7791 29H7.22093C6.54663 29 6 28.3808 6 27.617C6 26.8532 6.54663 26.234 7.22093 26.234Z" fill="#8BC3F3"/>
</svg>
