<svg width="33" height="32" viewBox="0 0 33 32" fill="none" xmlns="http://www.w3.org/2000/svg">
<path d="M7.82103 3H26.3792C27.0535 3 27.6001 3.61918 27.6001 4.38298C27.6001 5.14678 27.0535 5.76596 26.3792 5.76596H7.82103C7.14673 5.76596 6.6001 5.14678 6.6001 4.38298C6.6001 3.61918 7.14673 3 7.82103 3Z" fill="#8BC3F3"/>
<path d="M7.82103 26.234H26.3792C27.0535 26.234 27.6001 26.8532 27.6001 27.617C27.6001 28.3808 27.0535 29 26.3792 29H7.82103C7.14673 29 6.6001 28.3808 6.6001 27.617C6.6001 26.8532 7.14673 26.234 7.82103 26.234Z" fill="#8BC3F3"/>
<path d="M16.351 15.0141L13.5646 12.2086C13.229 11.8706 13.44 11.2419 13.8891 11.2419H14.8022V6.71L19.1976 6.71V11.2419H20.1107C20.5598 11.2419 20.7708 11.8706 20.4352 12.2086L17.6488 15.0141C17.2787 15.3867 16.7211 15.3867 16.351 15.0141Z" fill="#8BC3F3"/>
<path d="M16.351 16.9895L13.5646 19.795C13.229 20.133 13.44 20.7617 13.8891 20.7617H14.8022V25.2936L19.1976 25.2936V20.7617H20.1107C20.5598 20.7617 20.7708 20.133 20.4352 19.795L17.6488 16.9895C17.2787 16.6169 16.7211 16.6169 16.351 16.9895Z" fill="#8BC3F3"/>
</svg>
