<svg width="33" height="32" viewBox="0 0 33 32" fill="none" xmlns="http://www.w3.org/2000/svg">
<path fill-rule="evenodd" clip-rule="evenodd" d="M14.8665 17.3333V14.6667H8.5812C6.8972 14.6667 5.5332 13.4733 5.5332 12C5.5332 10.5267 6.8972 9.33333 8.5812 9.33333H14.8665V4C14.8665 3.64638 15.007 3.30724 15.2571 3.05719C15.5071 2.80714 15.8462 2.66667 16.1999 2.66667C16.5535 2.66667 16.8926 2.80714 17.1427 3.05719C17.3927 3.30724 17.5332 3.64638 17.5332 4V9.33333H23.8185C25.5025 9.33333 26.8665 10.5267 26.8665 12C26.8665 13.4733 25.5025 14.6667 23.8185 14.6667H17.5332V17.3333H21.5332C22.2404 17.3333 22.9187 17.6143 23.4188 18.1144C23.9189 18.6145 24.1999 19.2928 24.1999 20C24.1999 20.7072 23.9189 21.3855 23.4188 21.8856C22.9187 22.3857 22.2404 22.6667 21.5332 22.6667H17.5332V28C17.5332 28.3536 17.3927 28.6928 17.1427 28.9428C16.8926 29.1929 16.5535 29.3333 16.1999 29.3333C15.8462 29.3333 15.5071 29.1929 15.2571 28.9428C15.007 28.6928 14.8665 28.3536 14.8665 28V22.6667H10.8665C10.1593 22.6667 9.48102 22.3857 8.98092 21.8856C8.48082 21.3855 8.19987 20.7072 8.19987 20C8.19987 19.2928 8.48082 18.6145 8.98092 18.1144C9.48102 17.6143 10.1593 17.3333 10.8665 17.3333H14.8665Z" fill="#8BC3F3"/>
</svg>
