<svg width="33" height="32" viewBox="0 0 33 32" fill="none" xmlns="http://www.w3.org/2000/svg">
<rect x="0.399902" width="32" height="32" rx="4" fill="#283540"/>
<path d="M25.179 29H6.62083C5.94653 29 5.3999 28.3808 5.3999 27.617C5.3999 26.8532 5.94653 26.234 6.62083 26.234H25.179C25.8533 26.234 26.3999 26.8532 26.3999 27.617C26.3999 28.3808 25.8533 29 25.179 29Z" fill="#8BC3F3"/>
<path d="M16.5487 25.3041L19.3351 22.4986C19.6707 22.1606 19.4597 21.5319 19.0106 21.5319H18.0975V10.4681H19.0106C19.4597 10.4681 19.6707 9.83938 19.3351 9.50144L16.5487 6.69593C16.1786 6.32331 15.621 6.32331 15.2509 6.69593L12.4645 9.50144C12.1289 9.83938 12.3399 10.4681 12.789 10.4681H13.7021V21.5319H12.789C12.3399 21.5319 12.1289 22.1606 12.4645 22.4986L15.2509 25.3041C15.621 25.6767 16.1786 25.6767 16.5487 25.3041Z" fill="#8BC3F3"/>
<path d="M25.179 5.76596H6.62083C5.94653 5.76596 5.3999 5.14678 5.3999 4.38298C5.3999 3.61918 5.94653 3 6.62083 3H25.179C25.8533 3 26.3999 3.61918 26.3999 4.38298C26.3999 5.14678 25.8533 5.76596 25.179 5.76596Z" fill="#8BC3F3"/>
</svg>
