<svg width="24" height="24" viewBox="0 0 24 24" fill="none" xmlns="http://www.w3.org/2000/svg">
<path d="M4.88822 14.1929C2.49999 14.9929 1.36569 11.6929 2.36088 10.5C2.85843 9.83333 4.58971 7.89286 7.37597 4.69286C10.8588 0.692857 12.849 2.19286 14.3416 2.69286C15.8343 3.19286 19.8146 7.19286 20.8097 8.19286C21.8048 9.19286 22.3024 10.5 21.8048 11.5C21.4068 12.3 19.4431 12.6667 18.7797 12.5C19.7748 13 21.3073 17.1929 21.8048 18.6929C22.2028 19.8929 21.3073 21.1667 20.8097 21.5C20.3122 21.6667 18.919 22 17.3269 22C15.3367 22 15.8343 19.6929 16.3318 17.1929C16.8293 14.6929 14.3416 14.6929 11.8539 15.6929C9.36615 16.6929 9.8637 17.6929 10.8588 18.1929C11.8539 18.6929 11.8141 20.1929 11.3166 21.1929C10.8191 22.1929 6.83869 22.1929 5.84359 21.1929C5.07774 20.4232 6.1292 15.7356 6.80082 13.4517C6.51367 13.6054 5.93814 13.8412 4.88822 14.1929Z" fill="#8BC3F3"/>
</svg>
