<svg width="32" height="32" viewBox="0 0 32 32" fill="none" xmlns="http://www.w3.org/2000/svg">
<path fill-rule="evenodd" clip-rule="evenodd" d="M15.9999 16C15.9999 16.1427 15.9692 16.288 15.9039 16.4213C15.8398 16.5595 15.7376 16.6766 15.6092 16.7587L6.46256 22.5587C6.09456 22.7907 5.6319 22.6387 5.42923 22.22C5.36471 22.089 5.33183 21.9447 5.33323 21.7987V10.2013C5.33323 9.72132 5.67323 9.33333 6.09323 9.33333C6.22441 9.33264 6.35289 9.37067 6.46256 9.44266L15.6092 15.2413C15.7325 15.3252 15.8328 15.4385 15.901 15.571C15.9692 15.7035 16.0032 15.851 15.9999 16V10.2C15.9999 9.71999 16.3399 9.33199 16.7599 9.33199C16.8911 9.33131 17.0196 9.36934 17.1292 9.44133L26.2759 15.24C26.6426 15.472 26.7746 16 26.5706 16.42C26.5065 16.5582 26.4042 16.6752 26.2759 16.7573L17.1292 22.5573C16.7612 22.7893 16.2986 22.6373 16.0959 22.2187C16.0314 22.0877 15.9985 21.9433 15.9999 21.7973V16Z" fill="#8BC3F3"/>
</svg>
