<svg width="32" height="32" viewBox="0 0 32 32" fill="none" xmlns="http://www.w3.org/2000/svg">
<g filter="url(#filter0_g_41_638)">
<path d="M16.4923 29.9976C19.8936 30.0574 22.3055 28.99 23.666 28.0934C25.0266 27.1967 26.2635 26.9576 27.2529 26.7783C28.2424 26.5989 28.2424 25.6425 28.2424 25.224C28.2424 24.8056 28.0569 23.4905 25.0266 20.0234C22.8326 17.5132 20.8447 16.511 19.9061 16.2546C19.7676 16.2168 19.6745 16.0821 19.7076 15.9467L20.3977 13.1248C20.4273 13.0034 20.5485 12.9245 20.676 12.9435L21.1332 13.0115C21.2094 13.0228 21.2758 13.0678 21.3128 13.1333L21.5254 13.51C21.583 13.6123 21.7086 13.6594 21.8226 13.6217L23.6641 13.0128C23.8198 12.9613 23.8811 12.7798 23.7867 12.6494L23.6614 12.4765C23.5926 12.3814 23.605 12.2529 23.685 12.1665C24.1611 11.6518 24.788 10.6656 24.1608 9.32325C23.4913 7.89039 21.9206 7.7568 21.1462 8.03732C21.0952 8.05577 21.04 8.06127 20.9871 8.049L19.7745 7.76771C19.6373 7.73587 19.5004 7.82128 19.4738 7.95525L19.0045 10.3247C18.9821 10.4373 18.8802 10.5188 18.7615 10.5188L13.4809 10.5188C13.3622 10.5188 13.2603 10.4373 13.238 10.3246L12.7686 7.95522C12.742 7.82125 12.6051 7.73585 12.4679 7.76768L11.2553 8.04897C11.2024 8.06124 11.1472 8.05574 11.0962 8.03729C10.3218 7.75678 8.75109 7.89037 8.08163 9.32322C7.45447 10.6655 8.08134 11.6517 8.55745 12.1664C8.63745 12.2529 8.64987 12.3814 8.58104 12.4764L8.45577 12.6494C8.36136 12.7798 8.42258 12.9613 8.57835 13.0128L10.4198 13.6217C10.5338 13.6594 10.6594 13.6122 10.7171 13.51L10.9296 13.1333C10.9666 13.0678 11.033 13.0228 11.1092 13.0114L11.5664 12.9434C11.6939 12.9245 11.8151 13.0034 11.8448 13.1248L12.5348 15.9467C12.5679 16.0821 12.4748 16.2167 12.3363 16.2546C11.3977 16.511 9.40978 17.5132 7.21583 20.0234C4.18553 23.4905 4 24.8056 4 25.224C4 25.6425 4 26.5989 4.98949 26.7782C5.97897 26.9576 7.21583 27.1967 8.57638 28.0933C9.93692 28.99 12.3488 30.0573 15.7501 29.9976L16.4923 29.9976Z" fill="#8BC3F3"/>
<path d="M11.5489 8.89827C11.6709 9.6838 11.7976 10.844 12.2357 12.5711C12.5129 13.6637 12.7815 14.3615 12.9786 14.867C13.1818 15.3883 13.2764 15.637 13.2764 15.8988V16.2574H18.966V15.8988C18.966 15.637 19.0607 15.3883 19.2638 14.867C19.4609 14.3615 19.7295 13.6637 20.0067 12.5711C20.4448 10.8441 20.5715 9.6838 20.6935 8.89827L19.9596 8.79179C19.8342 9.59904 19.7135 10.7142 19.2858 12.4003C19.0189 13.4526 18.7619 14.12 18.5693 14.6141C18.4367 14.9544 18.3183 15.2477 18.2608 15.5401H13.9816C13.9241 15.2477 13.8057 14.9544 13.6731 14.6141C13.4805 14.12 13.2235 13.4526 12.9566 12.4003C12.5289 10.7142 12.4082 9.59904 12.2828 8.79179L11.5489 8.89827Z" fill="white"/>
<path d="M13.1194 16.7655H19.2321C19.2934 16.7655 19.3521 16.7856 19.3988 16.8239C20.5865 17.799 22.5426 19.9034 22.8636 22.0079C23.2257 24.3825 21.7502 25.2291 20.5713 25.8607C19.6282 26.366 17.6897 26.8082 16.6418 26.8082H15.7151C14.6115 26.8082 12.7287 26.366 11.7856 25.8607C10.6067 25.2291 9.13122 24.3825 9.49335 22.0079C9.81466 19.901 11.775 17.7941 12.9622 16.8205C13.0063 16.7844 13.0616 16.7655 13.1194 16.7655Z" fill="#FCFCFA"/>
<path d="M13.1056 17.3293C13.2104 17.2446 13.3665 17.2581 13.4541 17.3593C13.5418 17.4606 13.5279 17.6115 13.4231 17.6962C12.9377 18.0885 12.2944 18.7359 11.7393 19.5099C11.1829 20.2859 10.7283 21.1712 10.5964 22.0409C10.4519 22.9939 10.7052 23.6151 11.0933 24.0643C11.494 24.528 12.0505 24.825 12.5604 25.0998C12.935 25.3017 13.5132 25.4985 14.1226 25.6451C14.7311 25.7914 15.3458 25.8816 15.7883 25.8816H16.5778C16.9962 25.8816 17.6108 25.7916 18.2263 25.6449C18.8426 25.4981 19.432 25.3012 19.8057 25.0998C20.3157 24.825 20.8721 24.528 21.2728 24.0643C21.661 23.6151 21.9142 22.9939 21.7697 22.0409C21.6405 21.1886 21.2023 20.3213 20.6615 19.5564C20.1219 18.7933 19.492 18.149 19.0022 17.7445C18.8984 17.6587 18.8862 17.5078 18.9749 17.4074C19.0637 17.3071 19.2198 17.2952 19.3236 17.3809C19.8458 17.8122 20.5051 18.4878 21.0699 19.2866C21.6334 20.0835 22.115 21.02 22.2592 21.9715C22.4233 23.0539 22.1345 23.8131 21.6525 24.3709C21.183 24.9143 20.5411 25.2509 20.0466 25.5175C19.6167 25.7491 18.9783 25.9583 18.3447 26.1093C17.7101 26.2604 17.0523 26.3598 16.5778 26.3598H15.7883C15.2905 26.3598 14.6327 26.2606 14.0031 26.1092C13.3743 25.9579 12.7486 25.7487 12.3196 25.5175C11.8251 25.2509 11.1831 24.9143 10.7136 24.3709C10.2316 23.8131 9.94279 23.0539 10.1069 21.9715C10.2541 21.0006 10.7535 20.0451 11.3326 19.2375C11.913 18.4281 12.5865 17.749 13.1056 17.3293Z" fill="#8BC3F3"/>
<path d="M16.4923 29.9976C19.8936 30.0574 22.3055 28.99 23.666 28.0934C25.0266 27.1967 26.2635 26.9576 27.2529 26.7783C28.2424 26.5989 28.2424 25.6425 28.2424 25.224C28.2424 24.8056 28.0569 23.4905 25.0266 20.0234C22.8326 17.5132 20.8447 16.511 19.9061 16.2546C19.7676 16.2168 19.6745 16.0821 19.7076 15.9467L20.3977 13.1248C20.4273 13.0034 20.5485 12.9245 20.676 12.9435L21.1332 13.0115C21.2094 13.0228 21.2758 13.0678 21.3128 13.1333L21.5254 13.51C21.583 13.6123 21.7086 13.6594 21.8226 13.6217L23.6641 13.0128C23.8198 12.9613 23.8811 12.7798 23.7867 12.6494L23.6614 12.4765C23.5926 12.3814 23.605 12.2529 23.685 12.1665C24.1611 11.6518 24.788 10.6656 24.1608 9.32325C23.4913 7.89039 21.9206 7.7568 21.1462 8.03732C21.0952 8.05577 21.04 8.06127 20.9871 8.049L19.7745 7.76771C19.6373 7.73587 19.5004 7.82128 19.4738 7.95525L19.0045 10.3247C18.9821 10.4373 18.8802 10.5188 18.7615 10.5188L13.4809 10.5188C13.3622 10.5188 13.2603 10.4373 13.238 10.3246L12.7686 7.95522C12.742 7.82125 12.6051 7.73585 12.4679 7.76768L11.2553 8.04897C11.2024 8.06124 11.1472 8.05574 11.0962 8.03729C10.3218 7.75678 8.75109 7.89037 8.08163 9.32322C7.45447 10.6655 8.08134 11.6517 8.55745 12.1664C8.63745 12.2529 8.64987 12.3814 8.58104 12.4764L8.45577 12.6494C8.36136 12.7798 8.42258 12.9613 8.57835 13.0128L10.4198 13.6217C10.5338 13.6594 10.6594 13.6122 10.7171 13.51L10.9296 13.1333C10.9666 13.0678 11.033 13.0228 11.1092 13.0114L11.5664 12.9434C11.6939 12.9245 11.8151 13.0034 11.8448 13.1248L12.5348 15.9467C12.5679 16.0821 12.4748 16.2167 12.3363 16.2546C11.3977 16.511 9.40978 17.5132 7.21583 20.0234C4.18553 23.4905 4 24.8056 4 25.224C4 25.6425 4 26.5989 4.98949 26.7782C5.97897 26.9576 7.21583 27.1967 8.57638 28.0933C9.93692 28.99 12.3488 30.0573 15.7501 29.9976L16.4923 29.9976Z" fill="#8BC3F3"/>
<path d="M10.6911 8.40132C10.3946 8.31279 10.0502 8.26312 9.71798 8.35962C9.18732 8.51375 8.67177 8.87323 8.37262 9.52894C7.82258 10.7346 8.76992 11.7914 9.18459 12.2306C9.18641 12.2325 9.1871 12.2344 9.1872 12.2355C9.18724 12.236 9.18707 12.2364 9.18707 12.2364L8.78104 12.805L9.27578 12.941L10.5102 13.3283L10.6626 12.9832L9.44896 12.5698L9.51575 12.4522L9.71613 12.1582C9.71613 12.1582 9.58948 12.0545 9.51575 11.9819C8.85368 11.3295 8.40008 10.4513 8.66725 9.74574C8.82677 9.32448 9.26838 8.92263 9.73592 8.68746L9.73893 8.68658C10.1614 8.56389 10.3338 8.51381 10.6626 8.51108C10.7244 8.51056 10.7502 8.41894 10.6911 8.40132Z" fill="white"/>
<path d="M4.72061 25.2726C4.72061 24.8058 4.85666 24.2159 5.18544 23.6472C5.54515 23.0251 6.2959 22.1754 6.2959 22.1754C6.2959 22.1754 6.04088 22.8119 5.81119 23.2475C5.58151 23.6832 5.5473 23.8071 5.43915 24.2005C5.24268 24.9153 5.32649 25.094 5.32649 25.2726C5.32649 25.5414 5.56884 25.7491 5.56884 25.7491C5.56884 25.7491 5.8795 26.0732 6.30347 26.1535C7.18073 26.3197 8.31143 26.5468 9.55225 27.4014C10.7135 28.2013 13.1528 29.1439 16.1212 29.1439V29.5624C13.0704 29.6184 10.5066 28.6407 9.27405 27.7917C8.12103 26.9976 7.07547 26.785 6.21176 26.6214C5.76527 26.5368 5.39175 26.4127 5.12864 26.1969C4.84994 25.9684 4.72061 25.659 4.72061 25.2726Z" fill="white"/>
<path d="M11.2478 12.3619C11.4347 12.3619 11.5834 12.2302 11.6223 12.1926C11.6465 12.4183 11.6097 12.4886 11.5398 12.5312C11.4471 12.5876 11.272 12.6441 11.0968 12.5876C10.9567 12.5425 10.8391 12.3619 10.7807 12.3054C10.8586 12.3243 11.061 12.3619 11.2478 12.3619Z" fill="white"/>
<path d="M21.5298 8.40132C21.8263 8.31279 22.1707 8.26312 22.5029 8.35962C23.0336 8.51375 23.5492 8.87323 23.8483 9.52894C24.3983 10.7346 23.451 11.7914 23.0363 12.2306C23.0345 12.2325 23.0338 12.2344 23.0337 12.2355C23.0337 12.236 23.0339 12.2364 23.0339 12.2364L23.4399 12.805L22.9451 12.941L21.7107 13.3283L21.5583 12.9832L22.772 12.5698L22.7052 12.4522L22.5048 12.1582C22.5048 12.1582 22.6314 12.0545 22.7052 11.9819C23.3672 11.3295 23.8208 10.4513 23.5537 9.74574C23.3942 9.32448 22.9525 8.92263 22.485 8.68746L22.482 8.68658C22.0596 8.56389 21.8871 8.51381 21.5583 8.51108C21.4965 8.51056 21.4708 8.41894 21.5298 8.40132Z" fill="white"/>
<path d="M27.5003 25.2726C27.5003 24.8058 27.3643 24.2159 27.0355 23.6472C26.6758 23.0251 25.925 22.1754 25.925 22.1754C25.925 22.1754 26.18 22.8119 26.4097 23.2475C26.6394 23.6832 26.6736 23.8071 26.7818 24.2005C26.9782 24.9153 26.8944 25.094 26.8944 25.2726C26.8944 25.5414 26.6521 25.7491 26.6521 25.7491C26.6521 25.7491 26.3414 26.0732 25.9175 26.1535C25.0402 26.3197 23.9095 26.5468 22.6687 27.4014C21.5074 28.2013 19.0897 29.1439 16.1212 29.1439V29.5624C19.1721 29.6184 21.7143 28.6407 22.9469 27.7917C24.0999 26.9976 25.1455 26.785 26.0092 26.6214C26.4557 26.5368 26.8292 26.4127 27.0923 26.1969C27.371 25.9684 27.5003 25.659 27.5003 25.2726Z" fill="white"/>
<path d="M20.9731 12.3619C20.7862 12.3619 20.6375 12.2302 20.5986 12.1926C20.5744 12.4183 20.6113 12.4886 20.6811 12.5312C20.7738 12.5876 20.9489 12.6441 21.1241 12.5876C21.2642 12.5425 21.3818 12.3619 21.4402 12.3054C21.3623 12.3243 21.1599 12.3619 20.9731 12.3619Z" fill="white"/>
<path d="M11.5489 8.89827C11.6709 9.6838 11.7976 10.844 12.2357 12.5711C12.5129 13.6637 12.7815 14.3615 12.9786 14.867C13.1818 15.3883 13.2764 15.637 13.2764 15.8988V16.2574H18.966V15.8988C18.966 15.637 19.0607 15.3883 19.2638 14.867C19.4609 14.3615 19.7295 13.6637 20.0067 12.5711C20.4448 10.8441 20.5715 9.6838 20.6935 8.89827L19.9596 8.79179C19.8342 9.59904 19.7135 10.7142 19.2858 12.4003C19.0189 13.4526 18.7619 14.12 18.5693 14.6141C18.4367 14.9544 18.3183 15.2477 18.2608 15.5401H13.9816C13.9241 15.2477 13.8057 14.9544 13.6731 14.6141C13.4805 14.12 13.2235 13.4526 12.9566 12.4003C12.5289 10.7142 12.4082 9.59904 12.2828 8.79179L11.5489 8.89827Z" fill="white"/>
<path d="M13.1194 16.7655H19.2321C19.2934 16.7655 19.3521 16.7856 19.3988 16.8239C20.5865 17.799 22.5426 19.9034 22.8636 22.0079C23.2257 24.3825 21.7502 25.2291 20.5713 25.8607C19.6282 26.366 17.6897 26.8082 16.6418 26.8082H15.7151C14.6115 26.8082 12.7287 26.366 11.7856 25.8607C10.6067 25.2291 9.13122 24.3825 9.49335 22.0079C9.81466 19.901 11.775 17.7941 12.9622 16.8205C13.0063 16.7844 13.0616 16.7655 13.1194 16.7655Z" fill="#FCFCFA"/>
<path d="M13.1056 17.3293C13.2104 17.2446 13.3665 17.2581 13.4541 17.3593C13.5418 17.4606 13.5279 17.6115 13.4231 17.6962C12.9377 18.0885 12.2944 18.7359 11.7393 19.5099C11.1829 20.2859 10.7283 21.1712 10.5964 22.0409C10.4519 22.9939 10.7052 23.6151 11.0933 24.0643C11.494 24.528 12.0505 24.825 12.5604 25.0998C12.935 25.3017 13.5132 25.4985 14.1226 25.6451C14.7311 25.7914 15.3458 25.8816 15.7883 25.8816H16.5778C16.9962 25.8816 17.6108 25.7916 18.2263 25.6449C18.8426 25.4981 19.432 25.3012 19.8057 25.0998C20.3157 24.825 20.8721 24.528 21.2728 24.0643C21.661 23.6151 21.9142 22.9939 21.7697 22.0409C21.6405 21.1886 21.2023 20.3213 20.6615 19.5564C20.1219 18.7933 19.492 18.149 19.0022 17.7445C18.8984 17.6587 18.8862 17.5078 18.9749 17.4074C19.0637 17.3071 19.2198 17.2952 19.3236 17.3809C19.8458 17.8122 20.5051 18.4878 21.0699 19.2866C21.6334 20.0835 22.115 21.02 22.2592 21.9715C22.4233 23.0539 22.1345 23.8131 21.6525 24.3709C21.183 24.9143 20.5411 25.2509 20.0466 25.5175C19.6167 25.7491 18.9783 25.9583 18.3447 26.1093C17.7101 26.2604 17.0523 26.3598 16.5778 26.3598H15.7883C15.2905 26.3598 14.6327 26.2606 14.0031 26.1092C13.3743 25.9579 12.7486 25.7487 12.3196 25.5175C11.8251 25.2509 11.1831 24.9143 10.7136 24.3709C10.2316 23.8131 9.94279 23.0539 10.1069 21.9715C10.2541 21.0006 10.7535 20.0451 11.3326 19.2375C11.913 18.4281 12.5865 17.749 13.1056 17.3293Z" fill="#8BC3F3"/>
<path d="M16.6711 3.25992C16.6711 3.25992 17.6803 2.19932 19.1802 2.38558C20.6802 2.57183 19.9223 5.46703 19.9223 5.46703C19.9223 5.46703 19.3139 6.64234 16.6711 4.23447V3.25992ZM15.5714 3.26819C15.5714 3.26819 14.5622 2.20759 13.0622 2.39385C11.6954 2.56377 12.0784 4.98485 12.2881 5.41139C12.3085 5.45242 12.9283 6.65061 15.5714 4.24274V3.26819Z" fill="#FCFCFA"/>
<path d="M16.6711 3.25992C16.6711 3.25992 17.6803 2.19932 19.1802 2.38558C20.6793 2.57179 19.9231 5.464 19.9223 5.46703L19.9149 5.47963C19.8384 5.59989 19.1488 6.49191 16.6711 4.23447V3.25992ZM13.0622 2.39385C14.5622 2.20759 15.5714 3.26819 15.5714 3.26819V4.24274C13.0932 6.50035 12.3937 5.58789 12.2992 5.43142L12.2881 5.41139C12.0801 4.98814 11.7014 2.60142 13.0305 2.39819L13.0622 2.39385ZM19.1172 2.85994C18.5046 2.78387 17.9857 2.96074 17.6078 3.16852C17.4195 3.27208 17.2714 3.38076 17.1717 3.46227C17.1697 3.4639 17.1677 3.46556 17.1658 3.46717V4.0256C18.3677 5.08788 19.0188 5.27145 19.2953 5.27555C19.3896 5.27695 19.4418 5.25771 19.4676 5.24403C19.4678 5.24309 19.4681 5.24217 19.4683 5.24123C19.4847 5.1678 19.507 5.06134 19.5293 4.93265C19.5744 4.67289 19.618 4.33303 19.6189 3.99489C19.6198 3.64776 19.5751 3.349 19.4785 3.14342C19.3935 2.96271 19.2872 2.88106 19.1172 2.85994ZM14.6347 3.17681C14.2686 2.97551 13.7702 2.80323 13.1824 2.86181L13.1253 2.86811C12.9613 2.8885 12.8532 2.96538 12.7642 3.11516C12.6638 3.28409 12.5995 3.53455 12.5775 3.8395C12.5561 4.13778 12.5778 4.45054 12.6179 4.71432C12.6378 4.84537 12.6615 4.95983 12.6849 5.04987C12.6966 5.09482 12.7077 5.13161 12.7173 5.15997C12.7221 5.17403 12.7262 5.1851 12.7295 5.19336C12.7299 5.1943 12.7302 5.1952 12.7306 5.19604C12.7478 5.2151 12.8086 5.26607 12.95 5.26714C13.2249 5.26922 13.8742 5.09578 15.0766 4.03389V3.47534C15.0747 3.47374 15.0727 3.47207 15.0707 3.47044C14.971 3.38894 14.8229 3.28036 14.6347 3.17681ZM15.2074 3.59221L15.2082 3.59291C15.2084 3.59315 15.2086 3.5935 15.2086 3.5935C15.2084 3.59328 15.2081 3.5929 15.2074 3.59221Z" fill="#8BC3F3"/>
<path d="M15.8162 3.16618H16.4365C16.6233 3.16618 16.7166 3.25643 16.7166 3.43694V4.09096C16.7166 4.27147 16.6233 4.36173 16.4365 4.36173H15.8162C15.6295 4.36173 15.5361 4.27147 15.5361 4.09096V3.43694C15.5361 3.25643 15.6295 3.16618 15.8162 3.16618Z" fill="#FCFCFA"/>
<path d="M16.4366 4.12635L16.4365 4.36173H15.8162L15.8162 4.12635H16.4366ZM16.4732 4.09098V3.43693C16.4732 3.42195 16.4718 3.41121 16.4705 3.40389C16.463 3.40268 16.4519 3.40155 16.4366 3.40155H15.8162C15.8008 3.40155 15.7897 3.40279 15.7822 3.404C15.7809 3.41132 15.7796 3.42203 15.7796 3.43693V4.09098C15.7796 4.10579 15.7809 4.11647 15.7822 4.12378C15.7897 4.12499 15.8008 4.12635 15.8162 4.12635L15.8162 4.36173L15.7823 4.36067C15.6291 4.35079 15.5474 4.27182 15.5372 4.12378L15.5361 4.09096V3.43694C15.5361 3.25643 15.6295 3.16618 15.8162 3.16618H16.4365L16.4704 3.16723C16.6346 3.17779 16.7166 3.26771 16.7166 3.43694V4.09096L16.7156 4.12378C16.7054 4.27185 16.6236 4.35082 16.4704 4.36067L16.4365 4.36173L16.4366 4.12635C16.4519 4.12635 16.463 4.1251 16.4705 4.1239C16.4718 4.11658 16.4732 4.10588 16.4732 4.09098Z" fill="#8BC3F3"/>
<path d="M16.1875 4.4215C17.6985 4.42151 18.7854 5.24416 19.0748 6.01354C19.1215 6.13765 19.0553 6.27489 18.9269 6.32002C18.7985 6.36515 18.6565 6.3011 18.6098 6.177C18.4045 5.6313 17.5314 4.89973 16.1875 4.89972C15.5262 4.89972 14.9027 5.10801 14.4138 5.38285C13.9145 5.66351 13.5954 5.99016 13.5024 6.19241C13.4469 6.31305 13.3008 6.36734 13.176 6.31372C13.0511 6.26007 12.995 6.11879 13.0505 5.99813C13.2048 5.66241 13.6276 5.27169 14.1651 4.96954C14.713 4.66155 15.4215 4.4215 16.1875 4.4215Z" fill="#8BC3F3"/>
<path d="M16.6711 3.25992C16.6711 3.25992 17.6803 2.19932 19.1802 2.38558C20.6802 2.57183 19.9223 5.46703 19.9223 5.46703C19.9223 5.46703 19.3139 6.64234 16.6711 4.23447V3.25992ZM15.5714 3.26819C15.5714 3.26819 14.5622 2.20759 13.0622 2.39385C11.6954 2.56377 12.0784 4.98485 12.2881 5.41139C12.3085 5.45242 12.9283 6.65061 15.5714 4.24274V3.26819Z" fill="#FCFCFA"/>
<path d="M16.6711 3.25992C16.6711 3.25992 17.6803 2.19932 19.1802 2.38558C20.6793 2.57179 19.9231 5.464 19.9223 5.46703L19.9149 5.47963C19.8384 5.59989 19.1488 6.49191 16.6711 4.23447V3.25992ZM13.0622 2.39385C14.5622 2.20759 15.5714 3.26819 15.5714 3.26819V4.24274C13.0932 6.50035 12.3937 5.58789 12.2992 5.43142L12.2881 5.41139C12.0801 4.98814 11.7014 2.60142 13.0305 2.39819L13.0622 2.39385ZM19.1172 2.85994C18.5046 2.78387 17.9857 2.96074 17.6078 3.16852C17.4195 3.27208 17.2714 3.38076 17.1717 3.46227C17.1697 3.4639 17.1677 3.46556 17.1658 3.46717V4.0256C18.3677 5.08788 19.0188 5.27145 19.2953 5.27555C19.3896 5.27695 19.4418 5.25771 19.4676 5.24403C19.4678 5.24309 19.4681 5.24217 19.4683 5.24123C19.4847 5.1678 19.507 5.06134 19.5293 4.93265C19.5744 4.67289 19.618 4.33303 19.6189 3.99489C19.6198 3.64776 19.5751 3.349 19.4785 3.14342C19.3935 2.96271 19.2872 2.88106 19.1172 2.85994ZM14.6347 3.17681C14.2686 2.97551 13.7702 2.80323 13.1824 2.86181L13.1253 2.86811C12.9613 2.8885 12.8532 2.96538 12.7642 3.11516C12.6638 3.28409 12.5995 3.53455 12.5775 3.8395C12.5561 4.13778 12.5778 4.45054 12.6179 4.71432C12.6378 4.84537 12.6615 4.95983 12.6849 5.04987C12.6966 5.09482 12.7077 5.13161 12.7173 5.15997C12.7221 5.17403 12.7262 5.1851 12.7295 5.19336C12.7299 5.1943 12.7302 5.1952 12.7306 5.19604C12.7478 5.2151 12.8086 5.26607 12.95 5.26714C13.2249 5.26922 13.8742 5.09578 15.0766 4.03389V3.47534C15.0747 3.47374 15.0727 3.47207 15.0707 3.47044C14.971 3.38894 14.8229 3.28036 14.6347 3.17681ZM15.2074 3.59221L15.2082 3.59291C15.2084 3.59315 15.2086 3.5935 15.2086 3.5935C15.2084 3.59328 15.2081 3.5929 15.2074 3.59221Z" fill="#8BC3F3"/>
<path d="M15.8162 3.16618H16.4365C16.6233 3.16618 16.7166 3.25643 16.7166 3.43694V4.09096C16.7166 4.27147 16.6233 4.36173 16.4365 4.36173H15.8162C15.6295 4.36173 15.5361 4.27147 15.5361 4.09096V3.43694C15.5361 3.25643 15.6295 3.16618 15.8162 3.16618Z" fill="#FCFCFA"/>
<path d="M16.4366 4.12635L16.4365 4.36173H15.8162L15.8162 4.12635H16.4366ZM16.4732 4.09098V3.43693C16.4732 3.42195 16.4718 3.41121 16.4705 3.40389C16.463 3.40268 16.4519 3.40155 16.4366 3.40155H15.8162C15.8008 3.40155 15.7897 3.40279 15.7822 3.404C15.7809 3.41132 15.7796 3.42203 15.7796 3.43693V4.09098C15.7796 4.10579 15.7809 4.11647 15.7822 4.12378C15.7897 4.12499 15.8008 4.12635 15.8162 4.12635L15.8162 4.36173L15.7823 4.36067C15.6291 4.35079 15.5474 4.27182 15.5372 4.12378L15.5361 4.09096V3.43694C15.5361 3.25643 15.6295 3.16618 15.8162 3.16618H16.4365L16.4704 3.16723C16.6346 3.17779 16.7166 3.26771 16.7166 3.43694V4.09096L16.7156 4.12378C16.7054 4.27185 16.6236 4.35082 16.4704 4.36067L16.4365 4.36173L16.4366 4.12635C16.4519 4.12635 16.463 4.1251 16.4705 4.1239C16.4718 4.11658 16.4732 4.10588 16.4732 4.09098Z" fill="#8BC3F3"/>
<path d="M16.1875 4.4215C17.6985 4.42151 18.7854 5.24416 19.0748 6.01354C19.1215 6.13765 19.0553 6.27489 18.9269 6.32002C18.7985 6.36515 18.6565 6.3011 18.6098 6.177C18.4045 5.6313 17.5314 4.89973 16.1875 4.89972C15.5262 4.89972 14.9027 5.10801 14.4138 5.38285C13.9145 5.66351 13.5954 5.99016 13.5024 6.19241C13.4469 6.31305 13.3008 6.36734 13.176 6.31372C13.0511 6.26007 12.995 6.11879 13.0505 5.99813C13.2048 5.66241 13.6276 5.27169 14.1651 4.96954C14.713 4.66155 15.4215 4.4215 16.1875 4.4215Z" fill="#8BC3F3"/>
</g>
<defs>
<filter id="filter0_g_41_638" x="3" y="1.36363" width="26.2424" height="29.6364" filterUnits="userSpaceOnUse" color-interpolation-filters="sRGB">
<feFlood flood-opacity="0" result="BackgroundImageFix"/>
<feBlend mode="normal" in="SourceGraphic" in2="BackgroundImageFix" result="shape"/>
<feTurbulence type="fractalNoise" baseFrequency="1 1" numOctaves="3" seed="4891" />
<feDisplacementMap in="shape" scale="2" xChannelSelector="R" yChannelSelector="G" result="displacedImage" width="100%" height="100%" />
<feMerge result="effect1_texture_41_638">
<feMergeNode in="displacedImage"/>
</feMerge>
</filter>
</defs>
</svg>
