<svg width="33" height="32" viewBox="0 0 33 32" fill="none" xmlns="http://www.w3.org/2000/svg">
<path fill-rule="evenodd" clip-rule="evenodd" d="M9.73332 28C9.73332 28.3536 9.59284 28.6928 9.34279 28.9428C9.09274 29.1929 8.75361 29.3333 8.39998 29.3333C8.04636 29.3333 7.70722 29.1929 7.45717 28.9428C7.20713 28.6928 7.06665 28.3536 7.06665 28V4C7.06665 3.64638 7.20713 3.30724 7.45717 3.05719C7.70722 2.80714 8.04636 2.66667 8.39998 2.66667C8.75361 2.66667 9.09274 2.80714 9.34279 3.05719C9.59284 3.30724 9.73332 3.64638 9.73332 4V28ZM15.0667 12C14.3594 12 13.6811 11.719 13.181 11.219C12.6809 10.7189 12.4 10.0406 12.4 9.33333C12.4 8.62609 12.6809 7.94781 13.181 7.44771C13.6811 6.94762 14.3594 6.66667 15.0667 6.66667H23.0667C23.7739 6.66667 24.4522 6.94762 24.9523 7.44771C25.4524 7.94781 25.7333 8.62609 25.7333 9.33333C25.7333 10.0406 25.4524 10.7189 24.9523 11.219C24.4522 11.719 23.7739 12 23.0667 12H15.0667ZM15.0667 16H20.4C21.1072 16 21.7855 16.281 22.2856 16.781C22.7857 17.2811 23.0667 17.9594 23.0667 18.6667C23.0667 19.3739 22.7857 20.0522 22.2856 20.5523C21.7855 21.0524 21.1072 21.3333 20.4 21.3333H15.0667C14.3594 21.3333 13.6811 21.0524 13.181 20.5523C12.6809 20.0522 12.4 19.3739 12.4 18.6667C12.4 17.9594 12.6809 17.2811 13.181 16.781C13.6811 16.281 14.3594 16 15.0667 16Z" fill="#8BC3F3"/>
</svg>
