<?xml version="1.0" standalone="no"?>
<!DOCTYPE svg PUBLIC "-//W3C//DTD SVG 20010904//EN"
 "http://www.w3.org/TR/2001/REC-SVG-20010904/DTD/svg10.dtd">
<svg version="1.0" xmlns="http://www.w3.org/2000/svg"
 width="300.000000pt" height="300.000000pt" viewBox="0 0 300.000000 300.000000"
 preserveAspectRatio="xMidYMid meet">
<metadata>
Created by potrace 1.10, written by Peter Selinger 2001-2011
</metadata>
<g transform="translate(0.000000,300.000000) scale(0.100000,-0.100000)"
fill="#000000" stroke="none">
<path d="M1232 2679 c-12 -4 -27 -21 -33 -36 -31 -77 -26 -236 7 -260 15 -11
14 -15 -6 -48 l-23 -37 22 -21 21 -21 57 56 c62 61 121 92 195 103 87 13 217
-43 268 -115 23 -33 50 -39 70 -15 10 12 8 21 -9 48 l-20 33 20 21 c42 42 34
238 -11 278 -11 10 -34 18 -50 17 -33 -1 -124 -39 -170 -72 -30 -22 -114 -28
-125 -10 -8 13 -132 75 -165 83 -14 3 -35 1 -48 -4z m133 -83 l60 -33 2 -54 2
-55 -78 -22 c-110 -31 -118 -30 -126 18 -7 42 1 129 16 169 12 29 37 24 124
-23z m395 29 c15 -18 26 -150 16 -189 -8 -33 -35 -33 -129 -3 l-69 23 -2 51
c-1 49 0 52 40 77 35 22 105 53 125 55 4 1 12 -6 19 -14z m-222 -117 c3 -37 3
-38 -32 -38 -35 0 -36 1 -36 41 0 39 1 40 33 37 29 -3 32 -6 35 -40z"/>
<path d="M1155 2194 c-33 -8 -67 -14 -75 -13 -84 8 -118 3 -158 -24 -23 -15
-54 -46 -69 -69 -25 -37 -28 -50 -28 -128 0 -78 3 -91 28 -128 22 -35 25 -45
16 -61 -7 -10 -10 -25 -6 -33 5 -15 162 -78 193 -78 8 0 23 13 32 30 31 55 47
40 76 -75 14 -57 26 -113 26 -124 0 -13 -22 -32 -70 -60 -147 -88 -334 -261
-439 -408 -80 -112 -144 -243 -149 -308 -4 -46 -1 -56 24 -84 24 -26 40 -33
94 -42 43 -6 94 -25 150 -54 322 -168 398 -193 625 -202 80 -3 181 -1 235 5
184 22 267 52 538 196 57 30 102 47 140 52 67 8 107 26 123 56 41 77 -63 304
-222 483 -93 105 -201 198 -322 278 -122 82 -114 57 -75 222 11 50 23 93 27
97 8 10 23 -2 44 -34 10 -16 24 -28 32 -28 30 0 187 63 192 78 4 8 1 23 -5 33
-10 15 -7 25 13 55 50 74 56 164 16 242 -43 83 -115 124 -214 121 -34 -1 -90
2 -123 6 -58 7 -63 6 -77 -16 -8 -13 -23 -64 -32 -114 -26 -136 -7 -125 -214
-125 -131 0 -181 3 -188 13 -6 6 -19 59 -29 117 -17 97 -38 142 -61 139 -5 -1
-35 -8 -68 -15z m-65 -61 c4 -5 17 -83 28 -174 12 -92 24 -174 28 -183 4 -11
1 -16 -11 -16 -10 0 -33 -11 -51 -25 -40 -30 -57 -31 -122 -4 -47 20 -51 24
-50 54 1 20 -8 46 -23 66 -20 29 -24 46 -24 110 0 68 3 79 29 113 45 59 82 78
140 72 27 -3 53 -9 56 -13z m115 -15 c3 -18 14 -92 25 -165 18 -125 70 -353
90 -400 9 -23 13 -23 179 -23 123 0 171 3 178 13 23 28 88 327 113 520 l12 88
32 -7 c17 -3 32 -7 33 -8 9 -7 -52 -356 -81 -473 -20 -78 -36 -153 -36 -167
l0 -26 -250 0 -250 0 0 29 c0 17 -16 92 -36 167 -19 76 -44 201 -54 278 -11
78 -22 153 -26 168 -5 27 1 31 53 37 7 0 15 -14 18 -31z m843 13 c57 -30 102
-110 102 -181 0 -14 -14 -54 -30 -88 -17 -35 -30 -75 -30 -88 0 -26 -42 -49
-109 -60 -30 -5 -40 -1 -60 20 -14 14 -33 26 -43 26 -21 0 -22 8 -8 98 31 205
40 270 40 275 0 3 8 8 18 10 39 11 85 6 120 -12z m-333 -289 c-40 -184 -58
-248 -73 -259 -23 -19 -252 -18 -277 1 -20 15 -70 192 -81 291 -7 57 -6 59 11
45 14 -12 55 -16 194 -18 158 -2 179 -1 206 16 17 10 32 15 33 10 2 -5 -4 -43
-13 -86z m134 -478 c75 -82 135 -170 177 -259 70 -147 56 -286 -38 -371 -195
-175 -774 -178 -972 -4 -71 63 -100 162 -77 269 21 100 110 251 216 369 l47
52 298 0 298 0 51 -56z m-785 -36 c-4 -7 -24 -38 -44 -68 -271 -404 -99 -680
435 -695 307 -9 528 66 614 209 78 130 46 294 -100 506 -21 30 -36 57 -33 59
14 14 226 -178 311 -281 76 -93 169 -265 180 -333 11 -68 -15 -89 -135 -110
-38 -6 -95 -33 -208 -97 -203 -116 -380 -156 -648 -145 -202 9 -310 36 -466
119 -63 34 -137 73 -165 87 -52 28 -129 51 -167 51 -31 0 -68 38 -68 71 0 100
162 354 321 505 97 91 196 161 173 122z"/>
<path d="M1169 1312 c-121 -151 -170 -252 -177 -363 -8 -128 34 -190 164 -243
227 -92 628 -67 780 49 102 78 106 227 11 393 -52 92 -156 221 -179 222 -34 0
-28 -21 24 -82 189 -223 230 -409 108 -497 -91 -66 -241 -95 -449 -89 -122 4
-159 10 -227 32 -148 48 -203 113 -189 222 11 87 85 225 182 341 25 29 42 57
38 63 -14 23 -42 7 -86 -48z"/>
</g>
</svg>
