<svg width="32" height="32" viewBox="0 0 32 32" fill="none" xmlns="http://www.w3.org/2000/svg">
<path fill-rule="evenodd" clip-rule="evenodd" d="M22.6667 28C22.6667 28.3536 22.5262 28.6928 22.2761 28.9428C22.0261 29.1929 21.687 29.3333 21.3333 29.3333C20.9797 29.3333 20.6406 29.1929 20.3905 28.9428C20.1405 28.6928 20 28.3536 20 28V4C20 3.64638 20.1405 3.30724 20.3905 3.05719C20.6406 2.80714 20.9797 2.66667 21.3333 2.66667C21.687 2.66667 22.0261 2.80714 22.2761 3.05719C22.5262 3.30724 22.6667 3.64638 22.6667 4V28ZM14.6667 6.66667C15.3739 6.66667 16.0522 6.94762 16.5523 7.44771C17.0524 7.94781 17.3333 8.62609 17.3333 9.33333C17.3333 10.0406 17.0524 10.7189 16.5523 11.219C16.0522 11.719 15.3739 12 14.6667 12H6.66667C5.95942 12 5.28115 11.719 4.78105 11.219C4.28095 10.7189 4 10.0406 4 9.33333C4 8.62609 4.28095 7.94781 4.78105 7.44771C5.28115 6.94762 5.95942 6.66667 6.66667 6.66667H14.6667ZM14.6667 16C15.3739 16 16.0522 16.281 16.5523 16.781C17.0524 17.2811 17.3333 17.9594 17.3333 18.6667C17.3333 19.3739 17.0524 20.0522 16.5523 20.5523C16.0522 21.0524 15.3739 21.3333 14.6667 21.3333H9.33333C8.62609 21.3333 7.94781 21.0524 7.44772 20.5523C6.94762 20.0522 6.66667 19.3739 6.66667 18.6667C6.66667 17.9594 6.94762 17.2811 7.44772 16.781C7.94781 16.281 8.62609 16 9.33333 16H14.6667Z" fill="#8BC3F3"/>
</svg>
