<svg width="32" height="32" viewBox="0 0 32 32" fill="none" xmlns="http://www.w3.org/2000/svg">
<path fill-rule="evenodd" clip-rule="evenodd" d="M19.5201 6.18689C19.2052 5.87191 19.4282 5.33334 19.8737 5.33334H25.6666C26.2189 5.33334 26.6666 5.78105 26.6666 6.33334V12.1262C26.6666 12.5717 26.128 12.7948 25.813 12.4798L23.9999 10.6667L18.6666 16L15.9999 13.3333L21.3333 8L19.5201 6.18689ZM12.4797 25.8131C12.7947 26.1281 12.5716 26.6667 12.1261 26.6667H6.33325C5.78097 26.6667 5.33325 26.219 5.33325 25.6667V19.8738C5.33325 19.4283 5.87182 19.2052 6.18681 19.5202L7.99992 21.3333L13.3333 16L15.9999 18.6667L10.6666 24L12.4797 25.8131Z" fill="#8BC3F3"/>
</svg>
