<svg width="33" height="32" viewBox="0 0 33 32" fill="none" xmlns="http://www.w3.org/2000/svg">
<path d="M14.8666 16H9.07372C8.62827 16 8.40519 16.5386 8.72017 16.8535L10.5333 18.6667L5.19995 24L7.86662 26.6667L13.2 21.3333L15.0131 23.1464C15.328 23.4614 15.8666 23.2383 15.8666 22.7929V17C15.8666 16.4477 15.4189 16 14.8666 16Z" fill="#8BC3F3"/>
<path d="M17.2 15.6667H22.9929C23.4384 15.6667 23.6615 15.1281 23.3465 14.8131L21.5334 13L26.8667 7.66667L24.2 5L18.8667 10.3333L17.0536 8.52022C16.7386 8.20524 16.2 8.42832 16.2 8.87377V14.6667C16.2 15.219 16.6477 15.6667 17.2 15.6667Z" fill="#8BC3F3"/>
</svg>
