<svg width="32" height="32" viewBox="0 0 32 32" fill="none" xmlns="http://www.w3.org/2000/svg">
<path fill-rule="evenodd" clip-rule="evenodd" d="M6.39992 4H25.5999C26.1893 4 26.6666 4.59733 26.6666 5.33333C26.6666 6.06933 26.1893 6.66667 25.5999 6.66667H6.39992C5.81059 6.66667 5.33325 6.06933 5.33325 5.33333C5.33325 4.59733 5.81059 4 6.39992 4ZM9.33325 12C9.33325 11.2928 9.6142 10.6145 10.1143 10.1144C10.6144 9.61428 11.2927 9.33333 11.9999 9.33333C12.7072 9.33333 13.3854 9.61428 13.8855 10.1144C14.3856 10.6145 14.6666 11.2928 14.6666 12V25.3333C14.6666 26.0406 14.3856 26.7189 13.8855 27.219C13.3854 27.719 12.7072 28 11.9999 28C11.2927 28 10.6144 27.719 10.1143 27.219C9.6142 26.7189 9.33325 26.0406 9.33325 25.3333V12ZM17.3333 12C17.3333 11.2928 17.6142 10.6145 18.1143 10.1144C18.6144 9.61428 19.2927 9.33333 19.9999 9.33333C20.7072 9.33333 21.3854 9.61428 21.8855 10.1144C22.3856 10.6145 22.6666 11.2928 22.6666 12V20C22.6666 20.7072 22.3856 21.3855 21.8855 21.8856C21.3854 22.3857 20.7072 22.6667 19.9999 22.6667C19.2927 22.6667 18.6144 22.3857 18.1143 21.8856C17.6142 21.3855 17.3333 20.7072 17.3333 20V12Z" fill="#8BC3F3"/>
</svg>
