<svg width="32" height="32" viewBox="0 0 32 32" fill="none" xmlns="http://www.w3.org/2000/svg">
<path d="M16 16H21.8C21.9467 16 22.0934 16.0333 22.2214 16.096C22.64 16.2987 22.792 16.7627 22.5587 17.1293L16.76 26.276C16.6814 26.4 16.564 26.5027 16.4227 26.5707C16.004 26.7747 15.476 26.6427 15.2427 26.276L9.4427 17.1293C9.37118 17.0195 9.33361 16.891 9.33469 16.76C9.33469 16.34 9.7227 16 10.2027 16H16ZM16 16C15.6934 16 15.3987 15.8587 15.24 15.6093L9.44003 6.46266C9.36898 6.3527 9.33188 6.22424 9.33336 6.09333C9.33336 5.67333 9.72136 5.33333 10.2014 5.33333H21.7987C21.9454 5.33333 22.092 5.36666 22.22 5.42933C22.6387 5.63199 22.7907 6.096 22.5574 6.46266L16.7587 15.6093C16.68 15.7333 16.5627 15.836 16.4214 15.904C16.288 15.9693 16.1427 16 16.0014 16" fill="#8BC3F3"/>
</svg>
