<svg width="32" height="32" viewBox="0 0 32 32" fill="none" xmlns="http://www.w3.org/2000/svg">
<path d="M3 24.7791V6.22093C3 5.54663 3.61918 5 4.38298 5C5.14678 5 5.76596 5.54663 5.76596 6.22093V24.7791C5.76596 25.4534 5.14678 26 4.38298 26C3.61918 26 3 25.4534 3 24.7791Z" fill="#8BC3F3"/>
<path d="M26.234 24.7791V6.22093C26.234 5.54663 26.8532 5 27.617 5C28.3808 5 29 5.54663 29 6.22093V24.7791C29 25.4534 28.3808 26 27.617 26C26.8532 26 26.234 25.4534 26.234 24.7791Z" fill="#8BC3F3"/>
<path d="M15.0141 16.2491L12.2086 19.0355C11.8706 19.3711 11.2419 19.1601 11.2419 18.711V17.7979H6.71L6.71 13.4025H11.2419V12.4894C11.2419 12.0403 11.8706 11.8293 12.2086 12.1649L15.0141 14.9513C15.3867 15.3213 15.3867 15.879 15.0141 16.2491Z" fill="#8BC3F3"/>
<path d="M16.9895 16.2491L19.795 19.0355C20.133 19.3711 20.7617 19.1601 20.7617 18.711V17.7979H25.2936L25.2936 13.4025H20.7617V12.4894C20.7617 12.0403 20.133 11.8293 19.795 12.1649L16.9895 14.9513C16.6169 15.3213 16.6169 15.879 16.9895 16.2491Z" fill="#8BC3F3"/>
</svg>
