<svg width="33" height="32" viewBox="0 0 33 32" fill="none" xmlns="http://www.w3.org/2000/svg">
<path d="M3.80005 24.7791V6.22093C3.80005 5.54663 4.41923 5 5.18303 5C5.94683 5 6.56601 5.54663 6.56601 6.22093V24.7791C6.56601 25.4534 5.94683 26 5.18303 26C4.41923 26 3.80005 25.4534 3.80005 24.7791Z" fill="#8BC3F3"/>
<path d="M7.49597 16.1488L10.3015 18.9352C10.6394 19.2708 11.2681 19.0598 11.2681 18.6107V17.6976H22.332V18.6107C22.332 19.0598 22.9607 19.2708 23.2986 18.9352L26.1041 16.1488C26.4767 15.7787 26.4767 15.221 26.1041 14.851L23.2986 12.0646C22.9607 11.729 22.332 11.94 22.332 12.3891V13.3022H11.2681V12.3891C11.2681 11.94 10.6394 11.729 10.3015 12.0646L7.49597 14.851C7.12335 15.221 7.12335 15.7787 7.49597 16.1488Z" fill="#8BC3F3"/>
<path d="M27.0341 24.7791V6.22093C27.0341 5.54663 27.6533 5 28.4171 5C29.1809 5 29.8 5.54663 29.8 6.22093V24.7791C29.8 25.4534 29.1809 26 28.4171 26C27.6533 26 27.0341 25.4534 27.0341 24.7791Z" fill="#8BC3F3"/>
</svg>
