<svg width="33" height="32" viewBox="0 0 33 32" fill="none" xmlns="http://www.w3.org/2000/svg">
<path fill-rule="evenodd" clip-rule="evenodd" d="M23.4668 17.3333V20C23.4668 20.7072 23.1858 21.3855 22.6857 21.8856C22.1857 22.3857 21.5074 22.6667 20.8001 22.6667C20.0929 22.6667 19.4146 22.3857 18.9145 21.8856C18.4144 21.3855 18.1335 20.7072 18.1335 20V17.3333H15.4668V23.6187C15.4668 25.3027 14.2735 26.6667 12.8001 26.6667C11.3268 26.6667 10.1335 25.3027 10.1335 23.6187V17.3333H4.80013C4.44651 17.3333 4.10737 17.1929 3.85732 16.9428C3.60727 16.6928 3.4668 16.3536 3.4668 16C3.4668 15.6464 3.60727 15.3072 3.85732 15.0572C4.10737 14.8071 4.44651 14.6667 4.80013 14.6667H10.1335V8.38133C10.1335 6.69733 11.3268 5.33333 12.8001 5.33333C14.2735 5.33333 15.4668 6.69733 15.4668 8.38133V14.6667H18.1335V12C18.1335 11.2928 18.4144 10.6145 18.9145 10.1144C19.4146 9.61428 20.0929 9.33333 20.8001 9.33333C21.5074 9.33333 22.1857 9.61428 22.6857 10.1144C23.1858 10.6145 23.4668 11.2928 23.4668 12V14.6667H28.8001C29.1538 14.6667 29.4929 14.8071 29.7429 15.0572C29.993 15.3072 30.1335 15.6464 30.1335 16C30.1335 16.3536 29.993 16.6928 29.7429 16.9428C29.4929 17.1929 29.1538 17.3333 28.8001 17.3333H23.4668Z" fill="#8BC3F3"/>
</svg>
